<svg width="100%" height="100%" id="svg" viewBox="0 0 1440 490" xmlns="http://www.w3.org/2000/svg" class="transition duration-300 ease-in-out delay-150"><defs><linearGradient id="gradient" x1="0%" y1="50%" x2="100%" y2="50%"><stop offset="5%" stop-color="#2193b0"></stop><stop offset="95%" stop-color="#6dd5ed"></stop></linearGradient></defs><path d="M 0,500 C 0,500 0,166 0,166 C 83.93301435406698,186.7464114832536 167.86602870813397,207.4928229665072 252,205 C 336.13397129186603,202.5071770334928 420.46889952153106,176.77511961722487 523,179 C 625.5311004784689,181.22488038277513 746.2583732057416,211.40669856459328 841,220 C 935.7416267942584,228.59330143540672 1004.4976076555024,215.5980861244019 1100,203 C 1195.5023923444976,190.4019138755981 1317.751196172249,178.20095693779905 1440,166 C 1440,166 1440,500 1440,500 Z" stroke="none" stroke-width="0" fill="url(#gradient)" fill-opacity="0.53" class="transition-all duration-300 ease-in-out delay-150 path-0"></path><defs><linearGradient id="gradient" x1="0%" y1="50%" x2="100%" y2="50%"><stop offset="5%" stop-color="#2193b0"></stop><stop offset="95%" stop-color="#6dd5ed"></stop></linearGradient></defs><path d="M 0,500 C 0,500 0,333 0,333 C 111.60765550239236,342.4162679425838 223.21531100478472,351.8325358851675 317,348 C 410.7846889952153,344.1674641148325 486.7464114832535,327.0861244019138 587,316 C 687.2535885167465,304.9138755980862 811.799043062201,299.82296650717706 916,306 C 1020.200956937799,312.17703349282294 1104.0574162679427,329.62200956937795 1188,336 C 1271.9425837320573,342.37799043062205 1355.9712918660287,337.688995215311 1440,333 C 1440,333 1440,500 1440,500 Z" stroke="none" stroke-width="0" fill="url(#gradient)" fill-opacity="1" class="transition-all duration-300 ease-in-out delay-150 path-1"></path></svg>